<svg width="27" height="24" viewBox="0 0 27 24" fill="none" xmlns="http://www.w3.org/2000/svg">
<g clip-path="url(#clip0_3_1174)">
<path d="M0 6C0 4.34531 1.34531 3 3 3H15C16.6547 3 18 4.34531 18 6V18C18 19.6547 16.6547 21 15 21H3C1.34531 21 0 19.6547 0 18V6ZM26.2078 4.67813C26.6953 4.94063 27 5.44688 27 6V18C27 18.5531 26.6953 19.0594 26.2078 19.3219C25.7203 19.5844 25.1297 19.5562 24.6656 19.2469L20.1656 16.2469L19.5 15.8016V15V9V8.19844L20.1656 7.75312L24.6656 4.75313C25.125 4.44844 25.7156 4.41563 26.2078 4.67813Z" fill="#FF6C00"/>
</g>
<defs>
<clipPath id="clip0_3_1174">
<path d="M0 0H27V24H0V0Z" fill="white"/>
</clipPath>
</defs>
</svg>
