<svg width="54" height="42" viewBox="0 0 54 42" fill="none" xmlns="http://www.w3.org/2000/svg">
<path d="M6 0C2.69063 0 0 2.69063 0 6V9H54V6C54 2.69063 51.3094 0 48 0H6ZM54 18H0V36C0 39.3094 2.69063 42 6 42H48C51.3094 42 54 39.3094 54 36V18ZM10.5 30H16.5C17.325 30 18 30.675 18 31.5C18 32.325 17.325 33 16.5 33H10.5C9.675 33 9 32.325 9 31.5C9 30.675 9.675 30 10.5 30ZM21 31.5C21 30.675 21.675 30 22.5 30H34.5C35.325 30 36 30.675 36 31.5C36 32.325 35.325 33 34.5 33H22.5C21.675 33 21 32.325 21 31.5Z" fill="#FF6C00"/>
</svg>
