<svg width="60" height="48" viewBox="0 0 60 48" fill="none" xmlns="http://www.w3.org/2000/svg">
<g clip-path="url(#clip0_3_1093)">
<path d="M37.5094 18.2624C36.4875 18.5249 35.6438 18.6655 34.7813 18.9749C34.0969 19.153 33.4031 19.3405 32.6063 19.5468L32.55 19.5561C32.1563 19.6686 32.1188 19.678 31.7531 19.2561C31.3125 18.7593 30.9938 18.4405 30.3844 18.1405C28.5375 17.2405 26.7563 17.503 25.0969 18.5811C23.1094 19.8655 22.0875 21.7686 22.1156 24.1311C22.1438 26.4749 23.7469 28.3968 25.9781 28.7155C28.0406 28.978 29.7094 28.2843 31.0219 26.7936C31.2188 26.5499 31.3969 26.2968 31.5938 26.0155C31.6688 25.9218 31.7344 25.8186 31.8094 25.7061H26.175C25.5656 25.7061 25.4156 25.3311 25.6219 24.8343C25.9969 23.9249 26.7 22.4061 27.1125 21.6468C27.1969 21.478 27.4031 21.103 27.7594 21.103H37.2375C37.6594 19.8468 38.3438 18.5811 39.2625 17.3811C41.3906 14.578 43.8844 13.1155 47.4375 12.5061C50.4188 11.9811 53.2219 12.2718 55.7719 13.9968C58.0781 15.5718 59.5031 17.7093 59.8875 20.5124C60.3844 24.4593 59.2406 27.6655 56.4469 30.4124C54.6 32.3718 52.2375 33.5999 49.5188 34.153C48.9938 34.2468 48.4781 34.2936 47.9719 34.3405C47.7 34.3593 47.4375 34.3874 47.175 34.4155C44.5219 34.3593 42.0938 33.5999 40.05 31.8468C38.6156 30.5999 37.6219 29.0718 37.1344 27.2999C36.7875 27.9843 36.3844 28.6499 35.8219 29.278C33.7969 32.053 31.05 33.778 27.5813 34.2374C24.7125 34.6218 22.0594 34.0686 19.7156 32.3155C17.5594 30.6749 16.3313 28.5186 16.0125 25.828C15.6281 22.6405 16.5656 19.6968 18.4875 17.2686C20.5688 14.5499 23.3156 12.8249 26.6719 12.2155C29.4188 11.6343 32.0438 12.0374 34.4156 13.6499C35.9625 14.6718 37.0688 16.0686 37.8 17.7655C37.9781 18.028 37.8563 18.178 37.5094 18.2624ZM4.52813 18.7874C4.41094 18.7874 4.38188 18.7311 4.44 18.6374L5.05406 17.8499C5.11219 17.7655 5.25844 17.7093 5.37563 17.7093H15.8063C15.9188 17.7093 15.9469 17.7936 15.8906 17.878L15.3938 18.6374C15.3375 18.7311 15.1875 18.8155 15.1031 18.8155L4.52813 18.7874ZM0.116814 21.478C1.38581e-06 21.478 -0.0292111 21.4124 0.0292139 21.328L0.642658 20.5405C0.701158 20.4561 0.84722 20.3905 0.963752 20.3905H14.2875C14.4 20.3905 14.4563 20.4843 14.4281 20.5686L14.1938 21.2718C14.1656 21.3843 14.0531 21.4499 13.9313 21.4499L0.116814 21.478ZM7.09875 23.9905C7.04063 24.0749 7.06969 24.1593 7.18594 24.1593L13.5563 24.1874C13.6406 24.1874 13.7625 24.103 13.7625 23.9905L13.8188 23.2874C13.8188 23.1655 13.7625 23.0811 13.6406 23.0811H7.8C7.68281 23.0811 7.56657 23.1655 7.5075 23.2593L7.09875 23.9905ZM54.1125 22.303C54.0938 22.0593 54.0844 21.853 54.0469 21.6468C53.5219 18.7593 50.8594 17.1186 48.0844 17.7655C45.3656 18.3749 43.6125 20.0999 42.975 22.8468C42.45 25.1249 43.5563 27.4311 45.6563 28.3686C47.2688 29.0718 48.8719 28.9874 50.4188 28.1905C52.725 26.9155 53.9813 25.1249 54.1313 22.6124C54.1219 22.4999 54.1219 22.3968 54.1125 22.303Z" fill="#FF6C00"/>
</g>
<defs>
<clipPath id="clip0_3_1093">
<path d="M0 0H60V48H0V0Z" fill="white"/>
</clipPath>
</defs>
</svg>
