<svg width="24" height="24" viewBox="0 0 24 24" fill="none" xmlns="http://www.w3.org/2000/svg">
<g clip-path="url(#clip0_3_1181)">
<path d="M23.3953 0.29528C23.775 0.57653 24 1.02653 24 1.49997V4.87497V17.25C24 19.3218 21.9844 21 19.5 21C17.0156 21 15 19.3218 15 17.25C15 15.1781 17.0156 13.5 19.5 13.5C20.025 13.5 20.5312 13.575 21 13.7156V6.89059L9 10.4906V20.25C9 22.3218 6.98438 24 4.5 24C2.01562 24 0 22.3218 0 20.25C0 18.1781 2.01562 16.5 4.5 16.5C5.025 16.5 5.53125 16.575 6 16.7156V9.37497V5.99997C6 5.33903 6.43594 4.75309 7.06875 4.56091L22.0687 0.0609055C22.5234 -0.075032 23.0156 0.00934298 23.3953 0.29528Z" fill="#FF6C00"/>
</g>
<defs>
<clipPath id="clip0_3_1181">
<path d="M0 0H24V24H0V0Z" fill="white"/>
</clipPath>
</defs>
</svg>
