<svg width="23" height="24" viewBox="0 0 23 24" fill="none" xmlns="http://www.w3.org/2000/svg">
<path d="M11.25 0C11.4656 0 11.6813 0.046875 11.8781 0.135938L20.7047 3.88125C21.736 4.31719 22.5047 5.33438 22.5 6.5625C22.4766 11.2125 20.5641 19.7203 12.4875 23.5875C11.7047 23.9625 10.7953 23.9625 10.0125 23.5875C1.93596 19.7203 0.0234588 11.2125 2.13211e-05 6.5625C-0.00466618 5.33438 0.764084 4.31719 1.79533 3.88125L10.6266 0.135938C10.8188 0.046875 11.0344 0 11.25 0ZM11.25 3.13125V20.85C17.7188 17.7188 19.4578 10.7859 19.5 6.62813L11.25 3.13125Z" fill="#FF6C00"/>
</svg>
