<svg width="18" height="24" viewBox="0 0 18 24" fill="none" xmlns="http://www.w3.org/2000/svg">
<path d="M14.8801 2.09068C15.1566 1.4485 14.9504 0.698495 14.3832 0.285995C13.816 -0.126505 13.0426 -0.0890046 12.5129 0.37037L0.512881 10.8704C0.0441306 11.2829 -0.124619 11.9438 0.0956931 12.5251C0.316006 13.1063 0.878505 13.5001 1.50194 13.5001H6.72851L3.12382 21.9094C2.84726 22.5516 3.05351 23.3016 3.62069 23.7141C4.18788 24.1266 4.96132 24.0891 5.49101 23.6297L17.491 13.1297C17.9598 12.7172 18.1285 12.0563 17.9082 11.4751C17.6879 10.8938 17.1301 10.5047 16.5019 10.5047H11.2754L14.8801 2.09068Z" fill="#FF6C00"/>
</svg>
