<svg width="48" height="42" viewBox="0 0 48 42" fill="none" xmlns="http://www.w3.org/2000/svg">
<path d="M0 6C0 2.69063 2.69063 0 6 0H42C45.3094 0 48 2.69063 48 6V36C48 39.3094 45.3094 42 42 42H6C2.69063 42 0 39.3094 0 36V6ZM4.5 31.5V34.5C4.5 35.325 5.175 36 6 36H9C9.825 36 10.5 35.325 10.5 34.5V31.5C10.5 30.675 9.825 30 9 30H6C5.175 30 4.5 30.675 4.5 31.5ZM39 30C38.175 30 37.5 30.675 37.5 31.5V34.5C37.5 35.325 38.175 36 39 36H42C42.825 36 43.5 35.325 43.5 34.5V31.5C43.5 30.675 42.825 30 42 30H39ZM4.5 19.5V22.5C4.5 23.325 5.175 24 6 24H9C9.825 24 10.5 23.325 10.5 22.5V19.5C10.5 18.675 9.825 18 9 18H6C5.175 18 4.5 18.675 4.5 19.5ZM39 18C38.175 18 37.5 18.675 37.5 19.5V22.5C37.5 23.325 38.175 24 39 24H42C42.825 24 43.5 23.325 43.5 22.5V19.5C43.5 18.675 42.825 18 42 18H39ZM4.5 7.5V10.5C4.5 11.325 5.175 12 6 12H9C9.825 12 10.5 11.325 10.5 10.5V7.5C10.5 6.675 9.825 6 9 6H6C5.175 6 4.5 6.675 4.5 7.5ZM39 6C38.175 6 37.5 6.675 37.5 7.5V10.5C37.5 11.325 38.175 12 39 12H42C42.825 12 43.5 11.325 43.5 10.5V7.5C43.5 6.675 42.825 6 42 6H39ZM15 9V15C15 16.6594 16.3406 18 18 18H30C31.6594 18 33 16.6594 33 15V9C33 7.34062 31.6594 6 30 6H18C16.3406 6 15 7.34062 15 9ZM18 24C16.3406 24 15 25.3406 15 27V33C15 34.6594 16.3406 36 18 36H30C31.6594 36 33 34.6594 33 33V27C33 25.3406 31.6594 24 30 24H18Z" fill="#FF6C00"/>
</svg>
