<svg width="17" height="24" viewBox="0 0 17 24" fill="none" xmlns="http://www.w3.org/2000/svg">
<path d="M8.25 0C5.76562 0 3.75 2.01562 3.75 4.5V12C3.75 14.4844 5.76562 16.5 8.25 16.5C10.7344 16.5 12.75 14.4844 12.75 12V4.5C12.75 2.01562 10.7344 0 8.25 0ZM2.25 10.125C2.25 9.50156 1.74844 9 1.125 9C0.501562 9 0 9.50156 0 10.125V12C0 16.1766 3.10312 19.6266 7.125 20.175V21.75H4.875C4.25156 21.75 3.75 22.2516 3.75 22.875C3.75 23.4984 4.25156 24 4.875 24H8.25H11.625C12.2484 24 12.75 23.4984 12.75 22.875C12.75 22.2516 12.2484 21.75 11.625 21.75H9.375V20.175C13.3969 19.6266 16.5 16.1766 16.5 12V10.125C16.5 9.50156 15.9984 9 15.375 9C14.7516 9 14.25 9.50156 14.25 10.125V12C14.25 15.3141 11.5641 18 8.25 18C4.93594 18 2.25 15.3141 2.25 12V10.125Z" fill="#FF6C00"/>
</svg>
