<svg width="42" height="48" viewBox="0 0 42 48" fill="none" xmlns="http://www.w3.org/2000/svg">
<path d="M42 7.5V12C42 16.1437 32.5969 19.5 21 19.5C9.40313 19.5 0 16.1437 0 12V7.5C0 3.35625 9.40313 0 21 0C32.5969 0 42 3.35625 42 7.5ZM36.8625 20.1281C38.8125 19.4344 40.6031 18.5438 42 17.4469V27C42 31.1437 32.5969 34.5 21 34.5C9.40313 34.5 0 31.1437 0 27V17.4469C1.39687 18.5531 3.1875 19.4344 5.1375 20.1281C9.34688 21.6281 14.9531 22.5 21 22.5C27.0469 22.5 32.6531 21.6281 36.8625 20.1281ZM0 32.4469C1.39687 33.5531 3.1875 34.4344 5.1375 35.1281C9.34688 36.6281 14.9531 37.5 21 37.5C27.0469 37.5 32.6531 36.6281 36.8625 35.1281C38.8125 34.4344 40.6031 33.5438 42 32.4469V40.5C42 44.6437 32.5969 48 21 48C9.40313 48 0 44.6437 0 40.5V32.4469Z" fill="#FF6C00"/>
</svg>
